<?xml version="1.0" encoding="UTF-8" standalone="no"?>
<svg
   xmlns:dc="http://purl.org/dc/elements/1.1/"
   xmlns:cc="http://creativecommons.org/ns#"
   xmlns:rdf="http://www.w3.org/1999/02/22-rdf-syntax-ns#"
   xmlns:svg="http://www.w3.org/2000/svg"
   xmlns="http://www.w3.org/2000/svg"
   xmlns:sodipodi="http://sodipodi.sourceforge.net/DTD/sodipodi-0.dtd"
   xmlns:inkscape="http://www.inkscape.org/namespaces/inkscape"
   version="1.0"
   viewBox="0 0 726.924 726.924"
   preserveAspectRatio="xMidYMid meet"
   id="svg30"
   sodipodi:docname="icon.svg"
   width="726.92401"
   height="726.92401"
   inkscape:export-filename="C:\Workspace\party-ox\client\public\img\icons\favicon-512x512.png"
   inkscape:export-xdpi="67.616425"
   inkscape:export-ydpi="67.616425"
   inkscape:version="0.92.3 (2405546, 2018-03-11)">
  <metadata
     id="metadata36">
    <rdf:RDF>
      <cc:Work
         rdf:about="">
        <dc:format>image/svg+xml</dc:format>
        <dc:type
           rdf:resource="http://purl.org/dc/dcmitype/StillImage" />
      </cc:Work>
    </rdf:RDF>
  </metadata>
  <defs
     id="defs34" />
  <sodipodi:namedview
     pagecolor="#ffffff"
     bordercolor="#666666"
     borderopacity="1"
     objecttolerance="10"
     gridtolerance="10"
     guidetolerance="10"
     inkscape:pageopacity="0"
     inkscape:pageshadow="2"
     inkscape:window-width="1920"
     inkscape:window-height="1046"
     id="namedview32"
     showgrid="false"
     inkscape:zoom="0.76199635"
     inkscape:cx="438.65989"
     inkscape:cy="353.72776"
     inkscape:window-x="-11"
     inkscape:window-y="-11"
     inkscape:window-maximized="1"
     inkscape:current-layer="svg30" />
  <g
     transform="matrix(0.1,0,0,-0.1,-112.28766,811.759)"
     id="g28"
     style="fill:#66fcf1;stroke:none">
    <path
       d="m 1887,7518 c -9,-163 -51,-286 -135,-397 -57,-75 -124,-128 -244,-191 -181,-96 -300,-235 -354,-416 -24,-79 -24,-245 0,-334 24,-90 95,-232 154,-310 120,-157 310,-309 522,-415 95,-48 225,-105 238,-105 3,0 -46,53 -109,118 -172,176 -260,299 -331,464 -121,281 -101,469 74,682 143,175 200,255 237,331 98,199 103,389 15,577 -55,116 -60,116 -67,-4 z"
       id="path2"
       inkscape:connector-curvature="0" />
    <path
       d="m 7628,7600 c -38,-56 -79,-162 -95,-241 -42,-221 42,-438 271,-704 177,-205 217,-349 161,-571 -52,-204 -171,-397 -374,-606 -68,-71 -122,-128 -119,-128 13,0 143,58 238,105 210,105 405,260 522,415 137,180 198,400 164,590 -38,214 -174,378 -407,494 -153,76 -269,225 -315,406 -9,36 -19,110 -23,165 -6,98 -6,99 -23,75 z"
       id="path4"
       inkscape:connector-curvature="0" />
    <path
       d="m 1642,6213 c 64,-487 575,-963 1168,-1090 128,-27 339,-25 445,5 284,82 445,286 420,532 -9,89 -37,176 -56,173 -402,-58 -695,-66 -979,-28 -388,51 -721,196 -927,403 -40,39 -74,72 -76,72 -2,0 0,-30 5,-67 z"
       id="path6"
       inkscape:connector-curvature="0" />
    <path
       d="m 7825,6206 c -167,-171 -457,-314 -765,-375 -200,-39 -279,-46 -540,-45 -237,1 -324,7 -562,40 -48,7 -48,7 -63,-30 -9,-20 -21,-73 -27,-117 -22,-156 24,-292 135,-396 231,-216 619,-240 1028,-64 409,177 736,511 838,860 21,70 42,201 32,200 -3,0 -37,-33 -76,-73 z"
       id="path8"
       inkscape:connector-curvature="0" />
    <path
       d="m 4010,5963 c -99,-13 -260,-64 -260,-82 0,-3 12,-40 27,-81 25,-68 27,-88 27,-215 0,-127 -2,-146 -26,-207 -53,-139 -143,-256 -269,-350 -79,-58 -79,-58 -34,-171 64,-160 187,-296 391,-429 146,-96 208,-158 254,-251 44,-93 60,-167 60,-290 0,-152 -26,-255 -109,-439 -39,-88 -88,-240 -112,-353 -18,-84 -38,-335 -27,-335 3,0 22,27 42,59 98,159 318,289 572,337 103,19 315,22 415,5 101,-17 233,-58 313,-96 134,-66 208,-132 319,-285 18,-24 18,-23 13,91 -8,184 -62,409 -137,577 -84,184 -110,292 -110,441 1,118 16,193 61,288 41,89 105,152 254,250 146,97 279,222 335,316 36,62 75,154 86,204 6,29 3,34 -42,64 -226,155 -355,411 -324,644 7,46 23,116 36,156 14,40 25,73 25,75 0,1 -28,13 -62,27 -102,40 -173,52 -318,51 -112,-1 -151,-6 -232,-27 -115,-32 -248,-88 -341,-145 l -68,-41 -38,23 c -118,75 -285,144 -416,172 -73,16 -245,26 -305,17 z"
       id="path10"
       inkscape:connector-curvature="0" />
    <path
       d="m 2133,5069 c -85,-42 -91,-139 -18,-278 106,-201 416,-452 625,-506 79,-21 168,-16 232,13 97,42 177,159 199,288 24,146 31,172 58,230 16,33 44,78 62,99 33,37 33,38 9,31 -14,-3 -52,-14 -85,-23 -43,-13 -97,-17 -190,-17 -160,1 -281,25 -485,96 -272,94 -332,104 -407,67 z"
       id="path12"
       inkscape:connector-curvature="0" />
    <path
       d="m 7210,5070 c -36,-10 -130,-41 -210,-68 -205,-72 -325,-95 -485,-96 -93,0 -147,4 -190,17 -33,9 -71,20 -85,23 -24,7 -24,6 9,-31 18,-21 46,-66 62,-99 27,-58 34,-84 58,-229 29,-175 142,-296 291,-314 233,-27 655,275 788,565 31,69 35,154 9,194 -38,56 -132,71 -247,38 z"
       id="path14"
       inkscape:connector-curvature="0" />
    <path
       d="m 3395,4663 c 29,-288 164,-515 375,-630 166,-91 213,-136 257,-251 21,-56 22,-56 23,-22 1,19 3,44 6,55 2,11 -1,55 -6,98 -19,153 -100,267 -265,373 -44,28 -110,70 -147,93 -110,70 -183,164 -219,284 -12,37 -23,67 -26,67 -2,0 -2,-30 2,-67 z"
       id="path16"
       inkscape:connector-curvature="0" />
    <path
       d="m 6134,4703 c -19,-91 -89,-209 -160,-272 -24,-21 -86,-64 -137,-94 -187,-112 -269,-190 -317,-301 -28,-65 -43,-186 -33,-256 l 9,-55 18,55 c 35,108 94,167 243,245 218,113 359,345 388,638 7,67 1,91 -11,40 z"
       id="path18"
       inkscape:connector-curvature="0" />
    <path
       d="m 3253,4548 c -37,-141 -46,-238 -40,-417 8,-268 62,-444 232,-760 149,-278 273,-547 335,-726 l 27,-80 6,210 c 6,223 21,320 83,530 21,72 27,112 28,200 0,98 -2,117 -25,169 -38,86 -103,169 -204,260 -297,268 -353,346 -391,544 -8,41 -14,91 -14,113 0,62 -14,46 -37,-43 z"
       id="path20"
       inkscape:connector-curvature="0" />
    <path
       d="m 6250,4591 c 0,-56 -24,-176 -49,-242 -34,-90 -110,-188 -238,-305 -205,-189 -261,-251 -304,-339 -63,-127 -64,-241 -3,-445 51,-167 65,-263 71,-484 l 6,-209 32,89 c 73,204 121,307 397,844 113,221 157,389 165,632 6,179 -3,277 -39,411 -23,88 -38,107 -38,48 z"
       id="path22"
       inkscape:connector-curvature="0" />
    <path
       d="m 4403,3046 c -85,-21 -159,-65 -223,-132 -69,-71 -100,-135 -100,-202 1,-78 30,-126 155,-246 122,-119 145,-155 145,-231 0,-38 -5,-52 -30,-77 -30,-30 -33,-30 -109,-26 -92,5 -131,24 -178,87 -54,71 -68,134 -68,314 v 158 l -37,-43 c -94,-109 -158,-299 -158,-473 0,-171 39,-269 133,-332 95,-64 233,-68 442,-14 160,41 234,51 395,51 149,0 254,-14 405,-55 304,-81 496,-15 550,191 32,124 13,329 -45,466 -24,59 -107,189 -128,202 -4,2 -7,-66 -7,-152 0,-179 -14,-242 -68,-313 -47,-63 -86,-82 -178,-87 -76,-4 -79,-4 -109,26 -25,25 -30,39 -30,77 0,75 23,112 144,230 123,120 156,172 156,247 0,102 -107,240 -233,298 -123,58 -240,62 -387,14 l -78,-26 -73,27 c -89,32 -209,41 -286,21 z"
       id="path24"
       inkscape:connector-curvature="0" />
    <path
       d="m 4670,1793 c -93,-6 -189,-22 -320,-55 -153,-38 -256,-36 -357,4 -61,25 -62,25 -51,4 6,-11 36,-47 67,-80 340,-357 933,-417 1357,-137 85,56 208,171 233,219 14,26 9,28 -22,8 -37,-25 -137,-46 -213,-46 -47,0 -112,10 -185,29 -179,46 -356,65 -509,54 z"
       id="path26"
       inkscape:connector-curvature="0" />
  </g>
</svg>
