<svg xmlns="http://www.w3.org/2000/svg" version="1" viewBox="570 320 740 440">
  <defs>
    <clipPath id="a">
      <path fill='#66fcf1' stroke-width="7.5" d="M-67.797-2118.644h1542.373V313.56H-67.797z" transform="scale(1 -1)"/>
    </clipPath>
  </defs>
  <path fill='#66fcf1' d="M901 411.1L823.5 487h-49.7l-19.4 18.6-19.4 18.7v92.6l-3.7 1c-2.1.6-11.3 2.9-20.4 5.1l-16.7 4.2-7.6 30.1c-4.2 16.6-8 31.8-8.6 33.8-.7 2.7-3.4 5.8-9.9 11.7l-8.8 8.1-13.6 2c-23 3.4-32.7 6.4-32.7 10.1 0 7.1 37.6 13 110 17.4 179.3 11 457.4 4.5 512.6-11.9 5.4-1.6 9.1-4.6 7.9-6.6-4.1-6.5-51.8-13-124.5-16.9-126.7-6.7-317.1-5.6-419 2.4-8.5.7-15.6 1.2-15.8 1.1-.1-.1 9.7-10 21.9-22l22.1-21.8-1.6-6.3c-.9-3.5-1.6-6.8-1.6-7.4 0-.7 12-1 37.3-1h37.2l13.3-13.3 13.3-13.3 4.4-17c2.5-9.3 4.5-17 4.5-17.2 0-.1 30-.2 66.8-.2h66.7l12.6-11.9 12.5-11.9 8.5 6.5c4.6 3.6 9.2 7.1 10.3 7.8 1.7 1.3 1.1 2.7-10.8 25.7L989 629.5l3.8 3.2c2 1.8 4 3.1 4.4 3 .4-.1 11.5-10.9 24.7-24l24.1-23.9.1-28.6.1-28.7 2.3 8 2.3 8 1.7-4c.9-2.2 3.4-8.1 5.5-13 2.1-5 5.1-11.7 6.7-15l2.8-6 .5 10.4.5 10.4 11.9 5.1c6.5 2.8 11.8 5.5 11.8 5.9-.1.5-8.1 5.9-17.9 12.1l-17.8 11.2-.3 5.8c-.2 4.5 0 5.7 1 5.4.7-.2 16.3-4.2 34.5-8.9l33.3-8.4v-47.2l8-7.2 7.9-7.2.3 9.2.3 9.2 17 10.4c14.8 9 16.9 10.6 16.6 12.6-1 5.4-.7 5.8 5.3 8.4 5.4 2.3 6.7 2.4 14.7 1.8l8.6-.7 7.3-7.3 7.2-7.3-6.6-27.2-6.6-27.1 6.5-24.9c3.6-13.7 6.5-25.5 6.5-26.2 0-.7-1.9-5.6-4.1-11l-4.1-9.6-25.7-10.9-25.6-10.8-36.5-.5-36.5-.5 12.2-9c6.7-5 12.1-9.4 12-9.8-.1-.4-15.6-7.3-34.4-15.3L1041 335l-31.2.1h-31.3l-77.5 76zm268.2 3.5c3.3.6 3.7 1 4.8 5.2l1.1 4.6-9 8.4c-5 4.6-9.1 8.7-9.1 9.2s1.2 1.2 2.8 1.8c2.2.7 4.3.1 12.2-3.6 5.2-2.4 12-5.5 15-6.9l5.5-2.5-2.5 2.7c-1.4 1.5-7.3 7.1-13.1 12.5l-10.5 9.9-12.2 1.7-12.2 1.7-6-2.4c-4.3-1.7-5.9-2.8-5.5-3.9.2-.8.9-3.8 1.6-6.5 1-4.5 2.5-6.3 14.8-18.8 14.3-14.4 14.2-14.4 22.3-13.1zM1276.9 371.6l-11.5 11.4-27.4 7.1c-15.1 3.8-28.2 7.2-29 7.5-1 .4 0 1.3 3.1 2.9 3.9 2.1 4.9 3.2 7.3 8.9 1.6 3.6 3.1 6.6 3.5 6.6.3 0 8.5-2 18.2-4.3l17.7-4.3 12.1-11.5c9.1-8.5 12.4-12.3 13.1-14.9 3.2-12.3 5.1-20.3 4.8-20.6-.2-.2-5.6 4.8-11.9 11.2z"/>
  <g clip-path="url(#a)" transform="scale(.1 -.1) rotate(-45 -3583.204 -9095.006) translate(40, -40)">
    <path stroke-width='100' stroke='#66fcf1' fill='#66fcf1' d="M120 1892l-30-30v-174c0-199-3-218-35-218-12 0-29-8-39-18-14-17-16-45-14-248l3-229 32-15 33-15V844c0-87 3-105 21-128 11-14 29-26 39-26 14 0 21-10 25-37 25-161 104-277 233-342 224-113 487-22 595 206l32 68 6 485c3 302 9 496 16 515 50 142 151 238 288 272 167 41 351-50 430-212 27-56 30-70 33-197 4-133 3-138-16-138-11 0-30-12-41-26-18-23-21-41-21-128v-101l-33-15-32-15-3-230c-2-225-2-230 19-247 12-10 30-18 40-18s20-1 21-2c0-2 4-92 7-200 6-188 7-199 29-220 31-31 93-31 124 0 22 21 23 32 29 220 3 108 7 198 7 200 1 1 13 2 25 2 13 0 31 8 41 18 14 17 16 45 14 248l-3 229-37 18-38 19v107c0 92-3 110-18 124-10 10-28 17-39 17-20 0-21 6-25 148-3 144-4 148-37 214-107 214-360 302-579 203-75-34-163-122-203-203l-34-67-6-490c-5-430-7-495-22-535-44-114-107-182-216-234-58-27-77-31-151-31-75 0-93 4-152 32-37 17-87 50-112 73-55 51-107 151-113 218-5 45-4 47 26 59 41 15 51 46 51 157v92l33 15 32 14 3 230c2 225 2 230-19 248-12 9-30 17-40 17s-20 1-21 3c0 1-4 91-7 199-7 222-10 233-84 245-31 5-40 1-67-25zm195-494c3-13 4-104 3-203l-3-180-37-18-38-17V876c0-58-3-111-6-120-9-23-99-23-108 0-3 9-6 62-6 120v104l-37 17-38 18-3 180c-1 99 0 190 3 203 5 21 9 22 135 22s130-1 135-22zm1555-237c0-118 8-145 49-159l31-11V580h-130c-126 0-130 1-135 23-3 12-4 103-3 202l3 180 30 14c17 8 33 19 37 25s8 59 8 117 3 109 7 112c3 4 28 7 55 7h48z"/>
    <rect x='35' y='785' width='300' height='700' fill='#66fcf1'></rect>
  </g>
</svg>
